<svg width="160" height="160" viewBox="0 0 160 160" fill="none" xmlns="http://www.w3.org/2000/svg">
  <rect width="160" height="160" rx="40" fill="#FFF7ED"/>
  <rect x="8" y="8" width="144" height="144" rx="32" stroke="#D86C3D" stroke-width="8"/>
  <circle cx="80" cy="80" r="46" fill="#F2E1C8"/>
  <path d="M58 39C67 31 81 28 96 32C108 35 118 44 123 55" stroke="#D3A13A" stroke-width="8" stroke-linecap="round"/>
  <path d="M53 58C58 50 67 45 77 44C88 43 99 47 107 56" stroke="#D86C3D" stroke-width="10" stroke-linecap="round"/>
  <path d="M68 58C61 69 58 82 60 95C63 110 75 122 91 124" stroke="#184A44" stroke-width="10" stroke-linecap="round"/>
  <path d="M95 47L112 64" stroke="#184A44" stroke-width="7" stroke-linecap="round"/>
  <path d="M93 51L110 68" stroke="#184A44" stroke-width="7" stroke-linecap="round"/>
  <path d="M91 55L108 72" stroke="#184A44" stroke-width="7" stroke-linecap="round"/>
  <path d="M106 70C101 76 98 83 98 90C98 103 109 114 122 114" stroke="#D86C3D" stroke-width="10" stroke-linecap="round"/>
  <path d="M117 62L91 88" stroke="#7A4A2E" stroke-width="8" stroke-linecap="round"/>
  <path d="M86 91L98 103L125 76C128 73 128 68 125 65L121 61C118 58 113 58 110 61L86 85C84 87 84 90 86 91Z" fill="#C59A62"/>
  <path d="M118 46C125 46 131 52 131 59C131 67 124 74 115 74C103 74 98 63 98 52C98 42 103 32 115 32C123 32 129 38 129 46C129 53 124 58 118 58C114 58 111 55 111 51C111 46 115 43 120 43" stroke="#184A44" stroke-width="6" stroke-linecap="round" stroke-linejoin="round"/>
  <path d="M95 118C101 113 111 111 119 114" stroke="#D3A13A" stroke-width="7" stroke-linecap="round"/>
</svg>